<svg id="Layer_1" data-name="Layer 1" xmlns="http://www.w3.org/2000/svg" viewBox="0 0 417 424"><defs><style>.cls-1{fill:none;}.cls-2{fill:#fff200;}.cls-3{fill:#231f20;}</style></defs><rect class="cls-1" width="417" height="424"/><rect class="cls-1" width="417" height="424"/><circle class="cls-2" cx="208.5" cy="208.5" r="206.59"/><path class="cls-3" d="M143.71,311.26c-12-6.28-22.38-11.7-32.74-17.06-2.94-1.53-3.65-3.88-3.65-7.1.09-44.9.06-89.81.06-136.41l99.38,54.1c2.14-9.52,2.14-9.53-5.42-13.9-29-16.77-58-33.66-87.18-50.19-5.18-2.93-7.31-6.18-6.92-12.25.58-8.86.15-17.79.15-28.19,9.17,4.83,17.16,9,25.12,13.25C167.65,132.23,202.75,151,238,169.6c4.76,2.51,7.09,5.14,6.77,11.12-.66,12.15-.35,24.36-.1,36.54.08,4-1.12,6.21-4.77,8-10.27,5.07-20,14-30.55,14.95-10.27,1-19.6-9.28-29.42-14.45-11.87-6.26-23.48-13-36.19-20.15Z"/><path class="cls-3" d="M272.69,157.09c-8.06,10-15.41,5.09-23,.69-7.42-4.29-15.08-8.12-24-12.91,9.92-5.32,18.83-10.12,27.76-14.89q23.85-12.76,47.72-25.5c8.26-4.4,8.29-4.37,8.29,4.77,0,55.37-.55,110.75.38,166.1.23,13.9-3.18,22.22-16.42,26.28-4.58,1.4-8.87,4-13,6.58-5.54,3.41-6.44,1.47-6.42-4.23.17-45.52.1-91,.1-136.55v-8.5Z"/><rect class="cls-1" width="417" height="417"/></svg>